<svg width="30" height="30" viewBox="0 0 30 30" fill="none" xmlns="http://www.w3.org/2000/svg">
<path d="M27 0H9C8.20435 0 7.44129 0.31607 6.87868 0.87868C6.31607 1.44129 6 2.20435 6 3V21C6 21.7956 6.31607 22.5587 6.87868 23.1213C7.44129 23.6839 8.20435 24 9 24H27C27.7956 24 28.5587 23.6839 29.1213 23.1213C29.6839 22.5587 30 21.7956 30 21V3C30 2.20435 29.6839 1.44129 29.1213 0.87868C28.5587 0.31607 27.7956 0 27 0ZM18 3.75C18.9946 3.75 19.9484 4.14509 20.6517 4.84835C21.3549 5.55161 21.75 6.50544 21.75 7.5C21.75 8.49456 21.3549 9.44839 20.6517 10.1517C19.9484 10.8549 18.9946 11.25 18 11.25C17.0054 11.25 16.0516 10.8549 15.3483 10.1517C14.6451 9.44839 14.25 8.49456 14.25 7.5C14.25 6.50544 14.6451 5.55161 15.3483 4.84835C16.0516 4.14509 17.0054 3.75 18 3.75ZM25.5 19.5H10.5V19.125C10.5 16.3515 13.881 13.5 18 13.5C22.119 13.5 25.5 16.3515 25.5 19.125V19.5Z" fill="#FF5C00"/>
<path d="M3 9H0V27C0 28.6545 1.3455 30 3 30H21V27H3V9Z" fill="#FF5C00"/>
</svg>
