<svg width="20" height="15" viewBox="0 0 20 15" fill="none" xmlns="http://www.w3.org/2000/svg">
<path d="M19.925 0.874878L10.825 9.93346C10.5908 10.1662 10.274 10.2968 9.94375 10.2968C9.61352 10.2968 9.2967 10.1662 9.0625 9.93346L0.04375 0.943598C0.0160246 1.04545 0.00132418 1.15041 0 1.25596V13.7506C0 14.0819 0.131696 14.3997 0.366117 14.6341C0.600537 14.8684 0.918479 15 1.25 15H18.75C19.0815 15 19.3995 14.8684 19.6339 14.6341C19.8683 14.3997 20 14.0819 20 13.7506V1.25596C19.995 1.1258 19.9697 0.997222 19.925 0.874878ZM2.10625 13.7506H1.2375V12.8572L5.78125 8.35289L6.6625 9.23376L2.10625 13.7506ZM18.7375 13.7506H17.8625L13.3062 9.23376L14.1875 8.35289L18.7312 12.8572L18.7375 13.7506Z" fill="white"/>
</svg>
