<svg width="40" height="40" viewBox="0 0 40 40" fill="none" xmlns="http://www.w3.org/2000/svg">
<path d="M20 40C19.8958 40 19.5052 39.974 18.8281 39.9219C20.4427 38.1771 21.25 36.1198 21.25 33.75C21.25 32.1354 21.0612 30.8984 20.6836 30.0391C20.306 29.1797 19.6615 28.3333 18.75 27.5C18.3333 27.1094 17.6237 26.6667 16.6211 26.1719C15.6185 25.6771 14.974 25.3125 14.6875 25.0781C14.2188 24.8177 13.737 24.4271 13.2422 23.9062C12.7474 23.3854 12.5 22.9167 12.5 22.5C12.5 22.0833 12.6432 21.6732 12.9297 21.2695C13.2161 20.8659 13.6198 20.4753 14.1406 20.0977C14.6615 19.7201 15.0391 19.4596 15.2734 19.3164C15.5078 19.1732 15.8333 18.9844 16.25 18.75C16.901 18.3854 17.4805 17.6302 17.9883 16.4844C18.4961 15.3385 18.75 14.0104 18.75 12.5C18.75 11.0417 18.5091 9.62891 18.0273 8.26172C17.5456 6.89453 16.8359 5.80729 15.8984 5H18.75L21.2891 2.5H10.3516C13.3464 0.833333 16.5625 0 20 0C22.7083 0 25.2995 0.527344 27.7734 1.58203C30.2474 2.63672 32.3763 4.05599 34.1602 5.83984C35.944 7.6237 37.3633 9.7526 38.418 12.2266C39.4727 14.7005 40 17.2917 40 20C40 22.7083 39.4727 25.2995 38.418 27.7734C37.3633 30.2474 35.944 32.3763 34.1602 34.1602C32.3763 35.944 30.2474 37.3633 27.7734 38.418C25.2995 39.4727 22.7083 40 20 40ZM33.7891 10H30.0391V6.25C30.0391 5.88542 29.9154 5.58594 29.668 5.35156C29.4206 5.11719 29.1211 5 28.7695 5C28.418 5 28.125 5.11719 27.8906 5.35156C27.6562 5.58594 27.5391 5.88542 27.5391 6.25V10H23.7891C23.4245 10 23.125 10.1172 22.8906 10.3516C22.6562 10.5859 22.5391 10.8789 22.5391 11.2305C22.5391 11.582 22.6562 11.8815 22.8906 12.1289C23.125 12.3763 23.4245 12.5 23.7891 12.5H27.5391V16.25C27.5391 16.5885 27.6562 16.8815 27.8906 17.1289C28.125 17.3763 28.418 17.5 28.7695 17.5C29.1211 17.5 29.4206 17.3763 29.668 17.1289C29.9154 16.8815 30.0391 16.5885 30.0391 16.25V12.5H33.7891C34.1276 12.5 34.4206 12.3763 34.668 12.1289C34.9154 11.8815 35.0391 11.582 35.0391 11.2305C35.0391 10.8789 34.9154 10.5859 34.668 10.3516C34.4206 10.1172 34.1276 10 33.7891 10ZM10 25C6.84896 25 3.97135 25.7292 1.36719 27.1875C0.455729 24.8438 0 22.4479 0 20C0 19.8958 0.0260417 19.5052 0.078125 18.8281C1.79688 20.3646 4.28385 21.1719 7.53906 21.25V22.5C7.53906 22.8385 7.6237 23.1641 7.79297 23.4766C7.96224 23.7891 8.15104 24.0299 8.35938 24.1992C8.56771 24.3685 8.8151 24.5182 9.10156 24.6484C9.38802 24.7786 9.58984 24.8633 9.70703 24.9023L10 25ZM15 12.5C15 14.4792 14.4076 16.0156 13.2227 17.1094C12.0378 18.2031 10.5469 18.75 8.75 18.75C7.05729 18.75 5.59245 18.0143 4.35547 16.543C3.11849 15.0716 2.5 13.3073 2.5 11.25C2.5 10.9375 2.53906 10.5599 2.61719 10.1172C3.6849 8.24219 5.03906 6.57552 6.67969 5.11719C6.99219 5.03906 7.26562 5 7.5 5C9.55729 5 11.3216 5.72917 12.793 7.1875C14.2643 8.64583 15 10.4167 15 12.5ZM10 27.5C12.3698 27.5 14.2188 28.2422 15.5469 29.7266C16.875 31.2109 17.5391 32.9688 17.5391 35C17.5391 36.6667 16.7448 38.125 15.1562 39.375C12.4479 38.6979 10 37.5195 7.8125 35.8398C5.625 34.1602 3.85417 32.1094 2.5 29.6875C4.60938 28.2292 7.10938 27.5 10 27.5Z" fill="#3A4C71"/>
</svg>
