<svg width="30" height="30" viewBox="0 0 30 30" fill="none" xmlns="http://www.w3.org/2000/svg">
<path d="M15 24.6429C13.7624 24.6439 12.5438 24.3383 11.4532 23.7533C10.3626 23.1682 9.43396 22.322 8.75035 21.2904L10.5353 20.1043C11.024 20.8411 11.6874 21.4456 12.4664 21.8637C13.2454 22.2819 14.1158 22.5007 15 22.5007C15.8841 22.5007 16.7545 22.2819 17.5336 21.8637C18.3126 21.4456 18.976 20.8411 19.4646 20.1043L21.2496 21.2904C20.566 22.322 19.6374 23.1682 18.5468 23.7533C17.4562 24.3383 16.2376 24.6439 15 24.6429Z" fill="#F45A3D"/>
<path d="M19.2857 12.8571C18.8619 12.8571 18.4476 12.9828 18.0952 13.2183C17.7428 13.4537 17.4682 13.7884 17.306 14.18C17.1438 14.5715 17.1013 15.0024 17.184 15.418C17.2667 15.8337 17.4708 16.2155 17.7705 16.5152C18.0702 16.8149 18.452 17.019 18.8677 17.1017C19.2833 17.1844 19.7142 17.1419 20.1058 16.9797C20.4973 16.8175 20.832 16.5429 21.0674 16.1905C21.3029 15.8381 21.4286 15.4238 21.4286 15C21.4314 14.7178 21.378 14.4379 21.2713 14.1766C21.1646 13.9153 21.0069 13.6779 20.8073 13.4784C20.6078 13.2788 20.3704 13.1211 20.1091 13.0144C19.8479 12.9077 19.5679 12.8543 19.2857 12.8571Z" fill="#F45A3D"/>
<path d="M10.7143 12.8571C10.2905 12.8571 9.87617 12.9828 9.52378 13.2183C9.17139 13.4537 8.89673 13.7884 8.73454 14.18C8.57236 14.5715 8.52992 15.0024 8.6126 15.418C8.69529 15.8337 8.89937 16.2155 9.19906 16.5152C9.49874 16.8149 9.88056 17.019 10.2962 17.1017C10.7119 17.1844 11.1428 17.1419 11.5343 16.9797C11.9259 16.8175 12.2605 16.5429 12.496 16.1905C12.7315 15.8381 12.8571 15.4238 12.8571 15C12.86 14.7178 12.8065 14.4379 12.6999 14.1766C12.5932 13.9153 12.4355 13.6779 12.2359 13.4784C12.0363 13.2788 11.799 13.1211 11.5377 13.0144C11.2764 12.9077 10.9965 12.8543 10.7143 12.8571Z" fill="#F45A3D"/>
<path d="M30 15V12.8571H27.8571V8.57143C27.8557 7.43522 27.4037 6.34596 26.6003 5.54254C25.7969 4.73912 24.7076 4.28713 23.5714 4.28571H21.4286V0H19.2857V4.28571H10.7143V0H8.57143V4.28571H6.42857C5.29236 4.28713 4.2031 4.73912 3.39968 5.54254C2.59626 6.34596 2.14427 7.43522 2.14286 8.57143V12.8571H0V15H2.14286V20.3571H0V22.5H2.14286V25.7143C2.14427 26.8505 2.59626 27.9398 3.39968 28.7432C4.2031 29.5466 5.29236 29.9986 6.42857 30H23.5714C24.7076 29.9986 25.7969 29.5466 26.6003 28.7432C27.4037 27.9398 27.8557 26.8505 27.8571 25.7143V22.5H30V20.3571H27.8571V15H30ZM25.7143 25.7143C25.7137 26.2824 25.4878 26.8271 25.086 27.2289C24.6843 27.6306 24.1396 27.8566 23.5714 27.8571H6.42857C5.86042 27.8566 5.31571 27.6306 4.91397 27.2289C4.51223 26.8271 4.28628 26.2824 4.28571 25.7143V8.57143C4.28628 8.00328 4.51223 7.45857 4.91397 7.05683C5.31571 6.65509 5.86042 6.42914 6.42857 6.42857H23.5714C24.1396 6.42914 24.6843 6.65509 25.086 7.05683C25.4878 7.45857 25.7137 8.00328 25.7143 8.57143V25.7143Z" fill="#F45A3D"/>
</svg>
