<svg width="30" height="30" viewBox="0 0 30 30" fill="none" xmlns="http://www.w3.org/2000/svg">
<path d="M14.9906 0H15.0206C16.1429 0 17.1836 0.411874 18.018 1.1021H18.0227C18.5996 1.57833 19.0759 2.18551 19.4187 2.88209L25 13.523L25.0338 13.6083L29.3062 21.7297C29.7609 22.5688 30 23.5322 30 24.5162C30 25.2876 29.8537 26.0251 29.5903 26.6937L29.595 26.7153C29.3958 27.2112 29.129 27.6711 28.8037 28.0793C28.4324 28.554 27.9898 28.9556 27.4948 29.2666C26.756 29.7372 25.9183 29.9895 25.0638 29.999H24.9803C23.8981 30 22.8454 29.613 21.9829 28.8969H21.9783C21.4013 28.4206 20.9251 27.8135 20.5822 27.1169L15.0009 16.476L14.9672 16.3907L10.6741 8.23233C10.2314 7.39724 9.99881 6.44845 10 5.48274C10 4.90448 10.0825 4.34367 10.2353 3.81882L10.2438 3.78595L10.2588 3.74384C10.3225 3.5302 10.405 3.28369 10.405 3.28369C10.6018 2.79388 10.8651 2.33953 11.186 1.93611L11.2648 1.83443L11.2835 1.81286V1.80772H11.2882L11.2985 1.79129L11.3088 1.78718C11.6551 1.36956 12.0588 1.01366 12.5052 0.732334C13.244 0.261789 14.0817 0.00944635 14.9363 0H14.9906ZM5.01033 30H4.93626C4.08179 29.9899 3.24426 29.7376 2.50517 29.2677C2.00639 28.9564 1.56762 28.5518 1.19634 28.0803C0.871065 27.6722 0.604257 27.2122 0.405045 26.7163L0.409733 26.6947C0.137571 26.0076 -0.00192172 25.2663 1.99958e-05 24.5173C1.99958e-05 23.4953 0.254098 22.5442 0.693813 21.7307L4.96626 13.6093L5.00002 13.524L8.799 6.28595C8.89182 7.16824 9.14027 8.03513 9.54155 8.82601L9.61374 8.96056L13.8328 16.9793V16.9638L13.9162 17.1611L14.2772 17.8564L9.41779 27.1169C9.07488 27.8134 8.59868 28.4206 8.02177 28.8969H8.01708C7.15481 29.6134 6.10195 30.0005 5.01971 29.999L5.01033 30Z" fill="#FF5C00"/>
</svg>
