<svg width="30" height="29" viewBox="0 0 30 29" fill="none" xmlns="http://www.w3.org/2000/svg">
<path d="M10.3077 21.3846H8.46154V18.2165H11.5385L11.8462 19.4045C12.0769 20.4341 11.3077 21.3846 10.3077 21.3846Z" fill="#F9CF90"/>
<path d="M25.3846 23.7606C25.3846 23.7606 16.3077 18.2165 11.5385 18.2165V7.12818C16 7.12818 25.3846 1.58404 25.3846 1.58404V23.7606Z" fill="#F9CF90"/>
<path d="M3.84615 16.6324C5.97033 16.6324 7.69231 14.8594 7.69231 12.6723C7.69231 10.4852 5.97033 8.71223 3.84615 8.71223C1.72198 8.71223 0 10.4852 0 12.6723C0 14.8594 1.72198 16.6324 3.84615 16.6324Z" fill="#FC8738"/>
<path d="M27.6923 10.2963H25.3846V15.0484H27.6923C29 15.0484 30 14.0188 30 12.6723C30 11.3259 29 10.2963 27.6923 10.2963Z" fill="#FC8738"/>
<path d="M11.2308 27.8791C10.5385 28.3543 9.30769 28.8296 7.69231 28.988C7.23077 29.0672 6.76923 28.7504 6.61538 28.1959L3.23077 17.3453C3.23077 17.3453 10 12.4347 10 18.2165C10 22.5726 11.1538 24.8695 11.6923 25.7407C12.0769 26.2951 12.0769 27.0079 11.6923 27.5623C11.5385 27.7207 11.3846 27.7999 11.2308 27.8791Z" fill="#FC8738"/>
<path d="M3.84616 18.2165H11.5385V7.12819H3.84616C3 7.12819 2.30769 7.84101 2.30769 8.71223V16.6324C2.30769 17.5037 3 18.2165 3.84616 18.2165Z" fill="#F4583D"/>
<path d="M26.1538 25.3447C25.3077 25.3447 24.6154 24.6318 24.6154 23.7606V1.58404C24.6154 0.712819 25.3077 0 26.1538 0C27 0 27.6923 0.712819 27.6923 1.58404V23.7606C27.6923 24.6318 27 25.3447 26.1538 25.3447Z" fill="#42A5F5"/>
</svg>
