<svg width="30" height="30" viewBox="0 0 30 30" fill="none" xmlns="http://www.w3.org/2000/svg">
<path d="M30 8.07292V14.3229C25.8088 16.1458 20.6029 17.1875 15 17.1875C9.39706 17.1875 4.19118 16.1458 0 14.3229V8.07292C0 6.92708 0.794118 5.98958 1.76471 5.98958H9.04412V4.42708C9.04412 2.03125 10.7206 0 12.7941 0H17.2059C19.2794 0 20.9559 2.03125 20.9559 4.42708V5.98958H28.2353C29.2059 5.98958 30 6.92708 30 8.07292ZM11.25 4.42708V5.98958H18.75V4.42708C18.75 3.4375 18.0441 2.60417 17.2059 2.60417H12.7941C11.9559 2.60417 11.25 3.4375 11.25 4.42708ZM12.7941 13.9583V15C12.7941 15.3125 12.9706 15.5208 13.2353 15.5208H16.7647C17.0294 15.5208 17.2059 15.3125 17.2059 15V13.9583C17.2059 13.6458 17.0294 13.4375 16.7647 13.4375H13.2353C12.9706 13.4375 12.7941 13.6458 12.7941 13.9583ZM0 27.9167V16.5625C4.23529 18.2812 9.39706 19.2708 15 19.2708C20.6029 19.2708 25.7647 18.2812 30 16.5625V27.9167C30 29.0625 29.2059 30 28.2353 30H1.76471C0.794118 30 0 29.0625 0 27.9167ZM17.2059 22.5521V21.5104C17.2059 21.1979 17.0294 20.9896 16.7647 20.9896H13.2353C12.9706 20.9896 12.7941 21.1979 12.7941 21.5104V22.5521C12.7941 22.8646 12.9706 23.0729 13.2353 23.0729H16.7647C17.0294 23.0729 17.2059 22.8646 17.2059 22.5521Z" fill="#FF5C00"/>
</svg>
