<svg width="20" height="20" viewBox="0 0 20 20" fill="none" xmlns="http://www.w3.org/2000/svg">
<path d="M9.9944 5.27221C8.10834 5.24619 6.29469 6.48918 5.6005 8.25932C4.88936 9.96245 5.28249 12.0588 6.56129 13.3801C7.80464 14.7338 9.8533 15.2326 11.5693 14.5982C13.3675 13.9786 14.6886 12.1798 14.7362 10.2563C14.832 8.3876 13.7215 6.53991 12.0494 5.74632C11.4114 5.43389 10.7032 5.27125 9.9944 5.27221ZM9.9944 6.14673C11.7183 6.11371 13.3518 7.39339 13.7531 9.08863C14.193 10.7176 13.4518 12.5751 12.0089 13.4286C10.5356 14.3637 8.45834 14.1145 7.24851 12.848C5.97178 11.6025 5.74443 9.4474 6.72393 7.95362C7.41765 6.83919 8.69176 6.13389 9.9944 6.14673ZM11.2204 7.26192L9.92433 9.63983C9.52403 9.68288 9.42894 10.297 9.79827 10.4608C10.0422 10.6321 10.2333 10.3472 10.4554 10.3571H12.4367V9.81048H10.4484L11.6937 7.52575L11.2204 7.26192ZM10.0752 2.1851e-05L9.93724 0.000251453H9.9336L9.92995 0.000317006L9.79202 0.00243772L9.78837 0.00250336L9.78474 0.00261261L9.64685 0.00660267L9.64321 0.00671192L9.63958 0.00686496L9.50176 0.0127352L9.49813 0.0128992L9.49448 0.0130959L9.35676 0.0208463L9.35311 0.021065L9.34948 0.0213164L9.21188 0.0309361L9.20823 0.0311985L9.2046 0.0314936L9.06715 0.0430045L9.06352 0.0432996L9.05989 0.0436495L8.9226 0.0570296L8.91897 0.0573903L8.91533 0.0577839L8.77825 0.0730442L8.77462 0.0734487L8.77099 0.0738969L8.63414 0.0910266L8.63051 0.0914638L8.62687 0.0919885L8.4903 0.110966L8.48667 0.111479L8.48304 0.112026L8.34674 0.132894L8.34311 0.133441L8.33948 0.134042L8.2035 0.15678L8.19986 0.157381L8.19623 0.158037L8.06061 0.182632L8.05695 0.183299L8.05334 0.18401L7.91809 0.210464L7.91445 0.211186L7.91082 0.211929L7.77596 0.240263L7.7723 0.241029L7.7687 0.241848L7.63426 0.27203L7.63062 0.27285L7.62699 0.273725L7.49302 0.305765L7.48937 0.306639L7.48576 0.307558L7.41346 0.325944L7.31846 0.359854L7.23136 0.411024L7.15514 0.477641L7.09248 0.55743L7.04555 0.647571L7.01597 0.744949L7.00479 0.846196L7.01235 0.947804L7.03846 1.04619L7.08216 1.13799L7.14193 1.22L7.21573 1.28935L7.30096 1.34364L7.3947 1.38101L7.49365 1.40012L7.59438 1.40035L7.67683 1.38614L7.74532 1.36873L7.87175 1.3385L7.99898 1.30989L8.12845 1.28272L8.25515 1.25794L8.38377 1.23462L8.51278 1.21306L8.64066 1.19349L8.77039 1.17544L8.89886 1.15937L9.02914 1.14487L9.15959 1.13214L9.29028 1.12123L9.42119 1.11205L9.55068 1.10477L9.6818 1.09919L9.81295 1.0954L9.94258 1.09341L10.0738 1.09318L10.205 1.09473L10.3345 1.09807L10.4639 1.10313L10.5963 1.11013L10.7254 1.11873L10.8559 1.12923L10.9861 1.14151L11.1161 1.15561L11.2444 1.17128L11.3734 1.18885L11.5025 1.20828L11.6324 1.22969L11.7606 1.25266L11.8866 1.27709L11.9193 1.28387L12.0194 1.29504L12.1199 1.28724L12.2172 1.2607L12.3078 1.21637L12.3888 1.15578L12.4573 1.08105L12.5109 0.994755L12.5477 0.899913L12.5664 0.799825L12.5665 0.697943L12.5479 0.597822L12.5112 0.502936L12.4578 0.416599L12.3894 0.341762L12.3085 0.281092L12.2178 0.236634L12.1374 0.213219L12.1018 0.205807L12.0981 0.205042L12.0944 0.20431L11.9593 0.17814L11.9556 0.177429L11.9519 0.176773L11.8164 0.152472L11.8127 0.151817L11.809 0.151215L11.6731 0.128806L11.6694 0.128216L11.6658 0.127669L11.5295 0.107161L11.5259 0.106615L11.5222 0.106101L11.3857 0.0875066L11.382 0.0869928L11.3783 0.0865446L11.2416 0.0698195L11.2379 0.0693822L11.2342 0.0689886L11.0972 0.0541546L11.0935 0.0537502L11.0899 0.0534004L10.9526 0.0404684L10.949 0.0401295L10.9453 0.0398234L10.8079 0.0287717L10.8042 0.0284657L10.8006 0.0282361L10.663 0.0190536L10.6594 0.0188131L10.6557 0.0186273L10.518 0.0113251L10.5144 0.0111282L10.5107 0.0110081L10.3729 0.00559694L10.3693 0.00545482L10.3656 0.00536733L10.2277 0.00183648L10.2241 0.00172714L10.2204 0.00168344L10.0825 4.3702e-05L10.0789 0L10.0752 2.1851e-05ZM15.5219 1.75918L15.4235 1.78063L15.3306 1.82023L15.2467 1.87652L15.1745 1.94762L15.1167 2.03102L15.0751 2.12383L15.0513 2.22283L15.0461 2.32456L15.0596 2.42551L15.0915 2.52218L15.1405 2.61117L15.205 2.68944L15.2687 2.74428L15.3012 2.76814L15.3019 2.76865L15.3561 2.80913L15.3568 2.80962L15.4076 2.84823L15.4085 2.84891L15.4564 2.88591L15.4572 2.88649L15.5092 2.9274L15.5609 2.96869L15.5619 2.96945L15.611 3.00943L15.6124 3.01053L15.6605 3.05036L15.7112 3.09299L15.7125 3.09402L15.7604 3.13497L15.8079 3.17629L15.8089 3.17717L15.8585 3.22105L15.9078 3.26536L15.9088 3.26632L15.9554 3.30897L16.004 3.35415L16.005 3.35515L16.0508 3.39847L16.0986 3.4445L16.1436 3.48849L16.1448 3.48969L16.1931 3.53783L16.1934 3.53818L16.2364 3.58173L16.2373 3.58267L16.2837 3.63043L16.3279 3.67675L16.3285 3.67733L16.3753 3.72725L16.3763 3.72836L16.4193 3.77505L16.4625 3.82267L16.4629 3.82316L16.5085 3.87435L16.5525 3.92459L16.5535 3.92575L16.5963 3.97553L16.5968 3.97622L16.6385 4.02553L16.6813 4.07714L16.7218 4.12667L16.7228 4.12798L16.7648 4.18043L16.8067 4.23365L16.8463 4.28481L16.8471 4.28579L16.889 4.34102L16.8899 4.34222L16.9294 4.39518L16.9302 4.39631L16.9701 4.45086L16.975 4.45757L16.9802 4.46411L17.0394 4.54005L17.0973 4.61594L17.1532 4.69099L17.208 4.76609L17.2632 4.84365L17.3171 4.92097L17.3692 4.99756L17.4202 5.0741L17.4209 5.07518L17.4729 5.15522L17.5235 5.23491L17.5733 5.3152L17.6215 5.39465L17.6705 5.47753L17.717 5.55804L17.7634 5.64058L17.8091 5.72363L17.8531 5.80571L17.8971 5.88977L17.9397 5.9735L17.9682 6.03081L18.0216 6.11721L18.0899 6.19207L18.1708 6.25281L18.2614 6.29731L18.3586 6.32403L18.459 6.33205L18.5592 6.32107L18.6556 6.2915L18.7449 6.24433L18.824 6.18123L18.8901 6.10438L18.941 6.01645L18.9749 5.92051L18.9906 5.81986L18.9875 5.71805L18.9658 5.61855L18.9341 5.54023L18.9044 5.48026L18.9031 5.47772L18.9018 5.47516L18.8564 5.38607L18.8551 5.38352L18.8538 5.38098L18.8075 5.29237L18.8061 5.28984L18.8048 5.28732L18.7575 5.1992L18.7562 5.19669L18.7548 5.19417L18.7066 5.10654L18.7052 5.10405L18.7038 5.10153L18.6548 5.01443L18.6534 5.01194L18.6519 5.00943L18.6019 4.92286L18.6005 4.92036L18.599 4.91788L18.5481 4.83186L18.5467 4.82937L18.5452 4.82691L18.4934 4.74143L18.4919 4.73894L18.4904 4.7365L18.4377 4.65156L18.4362 4.64909L18.4346 4.64665L18.381 4.56229L18.3795 4.55983L18.3779 4.55741L18.3234 4.4736L18.3219 4.47117L18.3202 4.46873L18.2649 4.38555L18.2633 4.38311L18.2616 4.38071L18.2054 4.2981L18.2037 4.29569L18.2021 4.29329L18.145 4.21129L18.1433 4.20889L18.1416 4.2065L18.0836 4.12514L18.0819 4.12274L18.0802 4.12035L18.0213 4.03961L18.0196 4.03724L18.0178 4.03487L17.9581 3.95476L17.9563 3.95239L17.9545 3.95004L17.8939 3.8706L17.8921 3.86823L17.8903 3.8659L17.834 3.79371L17.7961 3.74194L17.7947 3.74001L17.7933 3.7381L17.7501 3.6802L17.7487 3.67829L17.7472 3.67639L17.7036 3.61898L17.7022 3.61708L17.7007 3.6152L17.6567 3.55828L17.6553 3.5564L17.6538 3.55454L17.6093 3.49809L17.6079 3.49622L17.6064 3.49438L17.5616 3.43841L17.5601 3.43656L17.5586 3.43473L17.5133 3.37925L17.5118 3.37742L17.5103 3.3756L17.4647 3.32062L17.4632 3.31879L17.4616 3.31698L17.4156 3.26247L17.4141 3.26068L17.4125 3.25889L17.3661 3.20486L17.3645 3.20307L17.363 3.20132L17.3161 3.14778L17.3146 3.14601L17.313 3.14426L17.2658 3.0912L17.2642 3.08945L17.2626 3.0877L17.215 3.03512L17.2134 3.0334L17.2119 3.03168L17.1639 2.97958L17.1623 2.97787L17.1607 2.97615L17.1123 2.92456L17.1107 2.92284L17.1091 2.92116L17.0603 2.87004L17.0587 2.86836L17.0571 2.8667L17.0079 2.81605L17.0063 2.81439L17.0047 2.81275L16.9552 2.76257L16.9535 2.76092L16.9519 2.75931L16.902 2.70962L16.9004 2.70799L16.8987 2.70638L16.8485 2.65718L16.8468 2.65556L16.8452 2.65396L16.7946 2.60526L16.7929 2.60365L16.7913 2.60208L16.7403 2.55385L16.7386 2.55229L16.7369 2.5507L16.6856 2.50296L16.684 2.50141L16.6823 2.49988L16.6306 2.4526L16.6289 2.45107L16.6272 2.44953L16.5752 2.40274L16.5735 2.40123L16.5718 2.39971L16.5195 2.35343L16.5178 2.3519L16.5161 2.35044L16.4634 2.30462L16.4617 2.30312L16.46 2.30165L16.4069 2.25633L16.4052 2.25485L16.4035 2.2534L16.3501 2.20854L16.3484 2.20709L16.3467 2.20566L16.293 2.16129L16.2913 2.15987L16.2895 2.15843L16.2355 2.11456L16.2338 2.11313L16.232 2.11174L16.1777 2.06834L16.176 2.06692L16.1742 2.06556L16.1196 2.02262L16.1178 2.02126L16.116 2.01989L16.0611 1.97744L16.0593 1.97608L16.0576 1.97473L16.0023 1.93278L16.0005 1.93143L15.9987 1.93011L15.9432 1.88862L15.9414 1.8873L15.9396 1.88599L15.9035 1.85948L15.8168 1.8076L15.7221 1.77288L15.6226 1.75655L15.5219 1.75918ZM3.98533 2.02844L3.88726 2.05178L3.7952 2.09313L3.72563 2.1401L3.72109 2.14371L3.71936 2.14505L3.71767 2.14644L3.66382 2.18995L3.6621 2.19135L3.66041 2.19274L3.60688 2.23672L3.60519 2.2381L3.6035 2.23951L3.5503 2.28396L3.5486 2.28538L3.54692 2.2868L3.49406 2.33171L3.49236 2.33313L3.49068 2.33458L3.43814 2.37994L3.43648 2.38138L3.43481 2.38284L3.38263 2.42866L3.38094 2.43013L3.37929 2.4316L3.32743 2.47787L3.32577 2.47936L3.32413 2.48086L3.27261 2.52759L3.27097 2.52909L3.26932 2.53061L3.21816 2.57779L3.21652 2.57931L3.21487 2.58084L3.16407 2.6285L3.16243 2.63003L3.16081 2.63157L3.11036 2.67967L3.10874 2.68123L3.10712 2.68282L3.05704 2.73137L3.05542 2.73295L3.05381 2.73452L3.00408 2.78355L3.00246 2.78513L3.00088 2.78674L2.95152 2.83622L2.94992 2.83782L2.94833 2.83944L2.89935 2.88936L2.89775 2.891L2.89616 2.89263L2.84756 2.94302L2.84598 2.94466L2.84442 2.94632L2.79618 2.99715L2.79462 2.99883L2.79305 3.00049L2.74521 3.0518L2.74363 3.05348L2.74209 3.05517L2.69463 3.10693L2.69307 3.10861L2.69152 3.11032L2.64447 3.16251L2.64292 3.16425L2.64139 3.16598L2.59472 3.21863L2.59319 3.22036L2.59168 3.22211L2.54539 3.27523L2.54388 3.27698L2.54235 3.27873L2.49647 3.33229L2.49498 3.33407L2.49347 3.33584L2.448 3.38988L2.4465 3.39165L2.445 3.39344L2.39995 3.44794L2.39845 3.44973L2.39697 3.45154L2.35232 3.50647L2.35084 3.50829L2.34938 3.51012L2.30513 3.56551L2.30368 3.56735L2.30222 3.56919L2.25839 3.62504L2.25695 3.62689L2.25552 3.62875L2.21212 3.68505L2.21068 3.68691L2.20924 3.68879L2.16626 3.74553L2.16485 3.74741L2.16343 3.74932L2.12086 3.80652L2.11948 3.80841L2.11808 3.81031L2.07594 3.86799L2.07455 3.8699L2.07317 3.8718L2.03148 3.92995L2.03011 3.93186L2.02874 3.93379L1.98749 3.99238L1.98612 3.99431L1.98476 3.99626L1.94395 4.05529L1.9426 4.05724L1.94127 4.0592L1.90088 4.11868L1.89955 4.12065L1.89825 4.12264L1.85832 4.18256L1.85699 4.18455L1.8557 4.18653L1.81623 4.24694L1.81492 4.24892L1.81362 4.25093L1.77461 4.31178L1.77332 4.31379L1.77206 4.31579L1.74318 4.36172L1.71136 4.40552L1.70996 4.40745L1.70858 4.40939L1.66664 4.4682L1.66525 4.47016L1.6639 4.4721L1.62254 4.53118L1.62117 4.53315L1.61984 4.53508L1.57905 4.59444L1.57772 4.59641L1.57639 4.59838L1.5362 4.65798L1.53487 4.65994L1.53355 4.66191L1.49395 4.72177L1.49265 4.72376L1.49135 4.72574L1.45232 4.78584L1.45102 4.78783L1.44976 4.78984L1.4113 4.85019L1.41003 4.85218L1.40878 4.85419L1.37091 4.91478L1.36964 4.91679L1.36842 4.9188L1.33111 4.97965L1.32989 4.98166L1.32866 4.98368L1.29193 5.04476L1.29073 5.04678L1.28952 5.0488L1.25338 5.11012L1.25217 5.11215L1.25098 5.11418L1.21542 5.17572L1.21423 5.17776L1.21308 5.17979L1.17808 5.24158L1.17691 5.2436L1.17577 5.24565L1.14133 5.30766L1.1402 5.30968L1.13908 5.31176L1.1052 5.37397L1.10407 5.37602L1.10297 5.37807L1.06968 5.44052L1.06859 5.44257L1.06751 5.44462L1.03475 5.50729L1.03368 5.50933L1.0326 5.51141L1.00044 5.57428L0.999376 5.57633L0.998349 5.57841L0.966721 5.64147L0.965683 5.64355L0.964678 5.64562L0.933623 5.7089L0.932607 5.71097L0.93159 5.71305L0.901108 5.77653L0.900114 5.77861L0.899119 5.78069L0.869177 5.84437L0.868205 5.84645L0.867264 5.84855L0.837874 5.91241L0.836923 5.91451L0.835971 5.91658L0.828372 5.93351L0.795371 6.02976L0.780638 6.13055L0.784638 6.23232L0.80724 6.33161L0.847689 6.42493L0.904546 6.50903L0.975844 6.581L1.05913 6.63832L1.15147 6.67904L1.24969 6.70172L1.35034 6.70556L1.44997 6.69045L1.5451 6.65689L1.63242 6.60607L1.70889 6.53973L1.77184 6.46022L1.81227 6.38616L1.81882 6.37162L1.84622 6.31203L1.87466 6.25152L1.87536 6.25005L1.90185 6.1949L1.90213 6.19432L1.93205 6.13337L1.962 6.07363L1.96246 6.07271L1.99203 6.01502L1.99255 6.01397L2.022 5.95765L2.05352 5.89859L2.05428 5.89715L2.08502 5.84074L2.1176 5.7821L2.11814 5.78112L2.15014 5.72474L2.15087 5.72344L2.18276 5.66833L2.21549 5.61275L2.21628 5.61144L2.25094 5.5538L2.28614 5.49641L2.32192 5.43919L2.32249 5.43828L2.35823 5.38221L2.35842 5.38191L2.39229 5.32975L2.39324 5.32831L2.43063 5.27181L2.46848 5.21566L2.50692 5.15972L2.50756 5.1588L2.5448 5.10561L2.58433 5.05016L2.62511 4.99401L2.63581 4.97928L2.64551 4.96387L2.68304 4.90422L2.71986 4.84681L2.72053 4.84576L2.756 4.7915L2.79208 4.73732L2.79254 4.73664L2.83135 4.67947L2.8698 4.62386L2.8706 4.62271L2.90845 4.56904L2.90914 4.56803L2.94665 4.51578L2.98642 4.46136L3.02627 4.40775L3.02723 4.40649L3.06568 4.35574L3.10643 4.30292L3.146 4.25245L3.14665 4.25165L3.18839 4.19934L3.23028 4.14782L3.2738 4.09522L3.27409 4.09487L3.31659 4.04442L3.35642 3.9979L3.35655 3.99778L3.40241 3.94512L3.4027 3.94479L3.44529 3.89675L3.44633 3.89559L3.48968 3.84754L3.49032 3.84683L3.53338 3.79988L3.57861 3.75142L3.57939 3.75056L3.62133 3.70637L3.62172 3.70596L3.6689 3.65702L3.66992 3.65597L3.71402 3.61103L3.76074 3.56419L3.76184 3.5631L3.80659 3.51901L3.85404 3.47302L3.8552 3.47189L3.90067 3.42855L3.94661 3.38544L3.94759 3.38454L3.99747 3.33853L3.99776 3.33826L4.04516 3.29528L4.04596 3.29456L4.09114 3.25422L4.09181 3.25363L4.13999 3.21132L4.14025 3.21112L4.18916 3.16884L4.19033 3.16786L4.24075 3.12505L4.24203 3.12396L4.28999 3.08391L4.34109 3.04193L4.342 3.04119L4.38903 3.00319L4.39004 3.00237L4.39357 2.99957L4.46662 2.92942L4.52554 2.84678L4.56827 2.75453L4.59333 2.65585L4.59983 2.55419L4.58756 2.45307L4.55697 2.35598L4.50909 2.26635L4.44559 2.18727L4.36867 2.12146L4.28102 2.07126L4.18568 2.03835L4.08597 2.02392L3.98533 2.02844ZM19.3581 9.0364L19.2605 9.06151L19.1691 9.10449L19.0873 9.16387L19.0177 9.23759L18.9629 9.32308L18.9248 9.41736L18.9046 9.51716L18.902 9.60172L18.9061 9.69121L18.9095 9.78756L18.9118 9.88195L18.9131 9.97629L18.9133 10.073L18.914 10.0803L18.9136 10.0897L18.916 10.1589L18.9177 10.229V10.2301L18.9187 10.2968V10.2977L18.9192 10.362L18.9191 10.4318V10.4326L18.9184 10.4993V10.4999L18.9172 10.5642L18.9153 10.6316L18.9129 10.6987L18.91 10.7656L18.9064 10.8326L18.9023 10.8995L18.8976 10.9662L18.8975 10.9675L18.8923 11.0328L18.8922 11.0338L18.8867 11.097L18.8803 11.1636L18.8734 11.2299L18.8659 11.2961L18.8583 11.3587L18.8582 11.3599L18.8493 11.4281L18.8492 11.4288L18.8405 11.4917L18.8308 11.5577L18.8206 11.6231L18.8204 11.6245L18.8101 11.6869L18.7988 11.7525L18.787 11.8175L18.7867 11.8189L18.775 11.8806L18.762 11.9458L18.7485 12.011L18.7483 12.012L18.735 12.0736L18.7204 12.1386L18.7202 12.1399L18.7059 12.201L18.6903 12.2657L18.6899 12.2672L18.6747 12.3279L18.658 12.3924L18.6576 12.3939L18.6419 12.4527L18.6416 12.4536L18.6237 12.5184L18.6233 12.52L18.6055 12.5825L18.6054 12.5827L18.5874 12.644L18.587 12.6453L18.5688 12.7054L18.55 12.7658L18.5498 12.7667L18.5294 12.8302L18.5099 12.8899L18.5094 12.8912L18.4881 12.9543L18.4876 12.9558L18.4668 13.0158L18.4663 13.0173L18.4447 13.0779L18.4445 13.0787L18.4237 13.1358L18.4233 13.1368L18.4003 13.1986L18.3777 13.2577L18.3773 13.2587L18.3538 13.3191L18.3044 13.4412L18.254 13.5605L18.2015 13.6797L18.1466 13.7993L18.0908 13.916L18.0333 14.032L17.9736 14.1478L17.9422 14.2067L17.9028 14.3005L17.8813 14.4L17.8784 14.5019L17.8943 14.6025L17.9283 14.6983L17.9794 14.7862L18.0456 14.8629L18.1249 14.9258L18.2143 14.9728L18.3107 15.0022L18.4109 15.013L18.5113 15.0048L18.6085 14.9779L18.699 14.9332L18.7797 14.8723L18.848 14.7973L18.8933 14.7262L18.9265 14.6641L18.9284 14.6604L18.9303 14.6568L18.9936 14.5337L18.9955 14.5301L18.9974 14.5264L19.0589 14.4023L19.0608 14.3986L19.0625 14.3949L19.1222 14.2699L19.124 14.2661L19.1258 14.2623L19.1835 14.1364L19.1853 14.1326L19.187 14.1288L19.2429 14.002L19.2446 13.9981L19.2462 13.9942L19.3001 13.8665L19.3018 13.8625L19.3034 13.8586L19.3554 13.73L19.3566 13.7271L19.3578 13.7241L19.383 13.6594L19.3838 13.6575L19.3845 13.6554L19.4093 13.5906L19.4101 13.5886L19.4108 13.5866L19.4351 13.5215L19.4358 13.5195L19.4365 13.5175L19.4603 13.4522L19.4611 13.4502L19.4618 13.4482L19.485 13.3827L19.4857 13.3807L19.4864 13.3786L19.5092 13.3129L19.5099 13.3109L19.5106 13.3088L19.5328 13.2429L19.5335 13.2409L19.5342 13.2388L19.5559 13.1727L19.5566 13.1706L19.5572 13.1686L19.5784 13.1023L19.5791 13.1002L19.5798 13.0981L19.6004 13.0316L19.6011 13.0295L19.6017 13.0274L19.6219 12.9608L19.6225 12.9586L19.6232 12.9565L19.6428 12.8897L19.6434 12.8875L19.644 12.8854L19.6631 12.8183L19.6638 12.8162L19.6643 12.8141L19.6829 12.7468L19.6835 12.7447L19.6841 12.7425L19.7021 12.6751L19.7027 12.6729L19.7033 12.6708L19.7208 12.6032L19.7213 12.601L19.7219 12.5988L19.7388 12.531L19.7394 12.5289L19.7399 12.5267L19.7563 12.4587L19.7569 12.4565L19.7574 12.4543L19.7732 12.3862L19.7738 12.384L19.7743 12.3818L19.7896 12.3135L19.7901 12.3112L19.7906 12.309L19.8053 12.2405L19.8058 12.2383L19.8063 12.2361L19.8205 12.1674L19.821 12.1652L19.8214 12.163L19.8351 12.0941L19.8355 12.0919L19.836 12.0896L19.8491 12.0206L19.8495 12.0184L19.8499 12.0161L19.8624 11.947L19.8629 11.9447L19.8632 11.9424L19.8752 11.8731L19.8756 11.8708L19.876 11.8686L19.8874 11.7991L19.8878 11.7968L19.8881 11.7945L19.899 11.7249L19.8993 11.7226L19.8996 11.7203L19.9099 11.6505L19.9102 11.6482L19.9106 11.6459L19.9202 11.5759L19.9206 11.5736L19.9209 11.5713L19.93 11.5012L19.9303 11.4989L19.9306 11.4966L19.9391 11.4263L19.9394 11.424L19.9396 11.4217L19.9476 11.3513L19.9478 11.349L19.9481 11.3466L19.9554 11.2761L19.9557 11.2737L19.9559 11.2714L19.9627 11.2007L19.9629 11.1983L19.9631 11.196L19.9693 11.1252L19.9695 11.1228L19.9697 11.1205L19.9753 11.0495L19.9754 11.0471L19.9756 11.0448L19.9806 10.9736L19.9808 10.9713L19.9809 10.969L19.9853 10.8977L19.9855 10.8953L19.9856 10.893L19.9894 10.8215L19.9895 10.8192L19.9896 10.8168L19.9928 10.7453L19.9929 10.7429L19.993 10.7406L19.9956 10.6689L19.9957 10.6665L19.9958 10.6642L19.9977 10.5923L19.9978 10.59V10.5876L19.9992 10.5157V10.5109L19.9999 10.4389V10.4341L20 10.362V10.3572L19.9995 10.2849V10.2801L19.9983 10.2077V10.2029L19.9965 10.1304V10.128L19.9964 10.1256L19.9943 10.0612L19.994 9.96936V9.9634L19.9926 9.86307V9.86012L19.9925 9.85717L19.9901 9.75688L19.9899 9.75391L19.9898 9.75096L19.9863 9.65072L19.9862 9.64778L19.9861 9.64482L19.9818 9.55103L19.9677 9.45016L19.9354 9.35365L19.886 9.26489L19.8211 9.18695L19.7431 9.12256L19.6546 9.07389L19.5586 9.04273L19.4587 9.03006L19.3581 9.0364ZM0.475005 9.45384L0.376575 9.47555L0.283853 9.51534L0.200016 9.57186L0.128026 9.64313L0.0703687 9.72666L0.0290338 9.81958L0.00546948 9.91862L0 10.003L0.00085388 10.0729L0.000886372 10.0768L0.000994406 10.0807L0.0046264 10.2196L0.00473444 10.2235L0.00488577 10.2274L0.0104743 10.3663L0.0106256 10.3702L0.0108417 10.374L0.0183758 10.5129L0.018592 10.5167L0.0188406 10.5205L0.0283204 10.6593L0.028569 10.6631L0.0288933 10.6669L0.0402863 10.8056L0.0406106 10.8094L0.0409565 10.8132L0.0542844 10.9517L0.0546627 10.9554L0.0550627 10.9592L0.0703038 11.0975L0.0707038 11.1013L0.0711686 11.1051L0.0883121 11.2432L0.0887769 11.2469L0.089285 11.2507L0.108309 11.3886L0.108839 11.3923L0.109379 11.396L0.130285 11.5337L0.130858 11.5374L0.131463 11.5411L0.154249 11.6785L0.154865 11.6822L0.155514 11.6859L0.18017 11.8229L0.180818 11.8266L0.181521 11.8303L0.208015 11.967L0.208739 11.9707L0.209495 11.9743L0.237827 12.1108L0.238583 12.1144L0.239394 12.118L0.269552 12.254L0.270363 12.2577L0.271227 12.2613L0.303234 12.3969L0.304077 12.4005L0.304963 12.4041L0.338786 12.5393L0.339694 12.5428L0.340645 12.5464L0.376262 12.6811L0.377213 12.6847L0.378197 12.6883L0.415629 12.8225L0.416624 12.8261L0.417661 12.8296L0.456888 12.9633L0.457915 12.9669L0.458996 12.9704L0.499996 13.1036L0.501077 13.1071L0.502212 13.1106L0.544984 13.2432L0.546108 13.2467L0.547287 13.2502L0.591832 13.3823L0.592999 13.3857L0.594221 13.3892L0.640517 13.5206L0.641717 13.5241L0.642992 13.5275L0.69104 13.6583L0.692305 13.6618L0.693612 13.6652L0.7434 13.7953L0.744697 13.7987L0.746059 13.8022L0.797544 13.9316L0.798917 13.935L0.800322 13.9384L0.853536 14.0671L0.854942 14.0705L0.856412 14.0739L0.911323 14.2018L0.912782 14.2052L0.914274 14.2085L0.970893 14.3357L0.972407 14.3391L0.973941 14.3424L1.03225 14.4688L1.03381 14.4721L1.03539 14.4755L1.09539 14.601L1.09701 14.6043L1.09865 14.6077L1.118 14.6468L1.17128 14.7333L1.23948 14.8083L1.32028 14.8692L1.41083 14.9138L1.50801 14.9407L1.60842 14.9489L1.7086 14.938L1.80503 14.9086L1.8944 14.8616L1.97359 14.7986L2.03986 14.7219L2.09087 14.634L2.1249 14.5381L2.14071 14.4375L2.13779 14.3357L2.11626 14.2362L2.08474 14.1578L2.06734 14.1226L2.01011 14.0029L1.95535 13.8842L1.90128 13.7628L1.84962 13.6425L1.79902 13.5202L1.75038 13.3979L1.703 13.2741L1.6576 13.1505L1.61386 13.0263L1.57162 12.9011L1.53106 12.7754L1.49202 12.6485L1.4551 12.5226L1.41975 12.3959L1.38572 12.2673L1.35383 12.1398L1.32374 12.0122L1.29495 11.8825L1.26797 11.7526L1.24307 11.6241L1.21962 11.4936L1.19815 11.3642L1.17832 11.2336L1.16047 11.1042L1.14421 10.9731L1.12979 10.842L1.11716 10.7108L1.1064 10.5798L1.09745 10.4487L1.09033 10.3176L1.08507 10.1865L1.08166 10.0556L1.08085 9.98976L1.07025 9.88846L1.04124 9.7909L0.994814 9.70047L0.932628 9.62034L0.85679 9.55325L0.76998 9.50158L0.675183 9.4671L0.575704 9.451L0.475005 9.45384ZM15.8408 16.9307L15.7431 16.9556L15.6517 16.9984L15.5829 17.0465L15.5737 17.0541L15.4717 17.1356L15.3684 17.2159L15.2632 17.2953L15.1571 17.3733L15.0509 17.4491L14.9434 17.5237L14.8353 17.5966L14.7252 17.6687L14.6142 17.7392L14.5024 17.8081L14.3908 17.8749L14.2771 17.9407L14.1634 18.0045L14.0483 18.0671L13.9329 18.1278L13.8151 18.1876L13.699 18.2446L13.5811 18.3006L13.4619 18.355L13.3433 18.4072L13.223 18.4582L13.1014 18.5077L12.9818 18.5544L12.8586 18.6005L12.7368 18.6442L12.6146 18.686L12.4906 18.7264L12.3671 18.7647L12.2424 18.8015L12.1173 18.8363L11.9915 18.8693L11.8672 18.9L11.7723 18.9219L11.6767 18.9538L11.5885 19.003L11.5109 19.068L11.4465 19.1464L11.3977 19.2355L11.3661 19.3322L11.3527 19.4332L11.3582 19.5349L11.3822 19.6339L11.4239 19.7266L11.482 19.8099L11.5543 19.8808L11.6383 19.9369L11.7312 19.9763L11.8298 19.9976L11.9305 20L12.0132 19.9876L12.1116 19.9648L12.1155 19.9639L12.1193 19.963L12.2527 19.9301L12.2565 19.9291L12.2604 19.9281L12.3932 19.8932L12.397 19.8922L12.4008 19.8912L12.5332 19.8543L12.537 19.8532L12.5407 19.8521L12.6726 19.8133L12.6763 19.8122L12.6801 19.8111L12.8114 19.7704L12.8151 19.7692L12.8188 19.768L12.9495 19.7253L12.9532 19.7241L12.9569 19.7229L13.087 19.6784L13.0907 19.6771L13.0943 19.6758L13.2239 19.6294L13.2275 19.6281L13.231 19.6268L13.36 19.5785L13.3635 19.5772L13.3671 19.5758L13.4954 19.5257L13.4989 19.5243L13.5024 19.5228L13.63 19.4709L13.6335 19.4695L13.637 19.468L13.7639 19.4142L13.7674 19.4128L13.7708 19.4113L13.897 19.3557L13.9004 19.3542L13.9039 19.3526L14.0293 19.2953L14.0327 19.2937L14.0361 19.2921L14.1608 19.233L14.1641 19.2315L14.1675 19.2298L14.2914 19.169L14.2947 19.1673L14.298 19.1657L14.4211 19.1031L14.4244 19.1014L14.4277 19.0997L14.5499 19.0354L14.5532 19.0337L14.5564 19.0319L14.6778 18.966L14.6811 18.9642L14.6843 18.9624L14.8048 18.8947L14.808 18.893L14.8112 18.8911L14.9308 18.8218L14.934 18.82L14.9372 18.8181L15.0558 18.7471L15.059 18.7452L15.0621 18.7433L15.1799 18.6707L15.183 18.6688L15.1861 18.6668L15.3029 18.5927L15.3059 18.5907L15.309 18.5887L15.4248 18.5129L15.4278 18.5109L15.4309 18.5089L15.5457 18.4315L15.5487 18.4294L15.5517 18.4274L15.6654 18.3484L15.6684 18.3464L15.6714 18.3442L15.7841 18.2638L15.7871 18.2617L15.79 18.2595L15.9016 18.1775L15.9045 18.1753L15.9075 18.1731L16.018 18.0896L16.0209 18.0874L16.0238 18.0852L16.1331 18.0002L16.136 17.9979L16.1389 17.9956L16.2471 17.9092L16.25 17.9069L16.2528 17.9046L16.2644 17.8951L16.3363 17.8237L16.3939 17.7401L16.4352 17.6472L16.4587 17.5481L16.4636 17.4464L16.4497 17.3455L16.4176 17.2489L16.3683 17.1601L16.3035 17.082L16.2256 17.0175L16.1372 16.9687L16.0413 16.9373L15.9414 16.9245L15.8408 16.9307ZM3.85925 16.9651L3.76372 16.9975L3.67579 17.0472L3.59852 17.1125L3.53457 17.1913L3.48618 17.2806L3.45502 17.3775L3.44219 17.4786L3.44812 17.5802L3.47262 17.6791L3.51482 17.7716L3.57327 17.8546L3.63268 17.9141L3.66175 17.9391L3.66495 17.9418L3.6682 17.9445L3.77434 18.0328L3.77761 18.0355L3.78091 18.0381L3.88843 18.1247L3.89093 18.1267L3.89345 18.1287L3.94773 18.1713L3.94941 18.1727L3.95111 18.174L4.00574 18.2162L4.00744 18.2175L4.00914 18.2188L4.06412 18.2606L4.06583 18.2619L4.06756 18.2632L4.12287 18.3046L4.1246 18.3059L4.12636 18.3072L4.18201 18.3481L4.18376 18.3494L4.18551 18.3507L4.24152 18.3912L4.24327 18.3925L4.24505 18.3937L4.30137 18.4338L4.30317 18.435L4.30494 18.4363L4.36163 18.4759L4.36342 18.4772L4.36521 18.4784L4.42224 18.5176L4.42404 18.5188L4.42585 18.5201L4.48321 18.5588L4.48503 18.56L4.48686 18.5612L4.54454 18.5995L4.54638 18.6007L4.54824 18.6019L4.60625 18.6397L4.60811 18.6409L4.60997 18.6421L4.66832 18.6795L4.67018 18.6807L4.67206 18.6819L4.73075 18.7188L4.73263 18.7199L4.73453 18.7211L4.79354 18.7575L4.79544 18.7587L4.79734 18.7599L4.85668 18.7958L4.85861 18.797L4.86053 18.7981L4.9202 18.8336L4.92211 18.8347L4.92406 18.8358L4.98405 18.8709L4.98599 18.872L4.98794 18.8731L5.04828 18.9076L5.05022 18.9087L5.05218 18.9098L5.11283 18.9439L5.1148 18.945L5.11679 18.9461L5.17775 18.9796L5.17974 18.9807L5.18172 18.9818L5.24303 19.0148L5.24502 19.0159L5.24702 19.017L5.30865 19.0495L5.31065 19.0506L5.31268 19.0516L5.37462 19.0837L5.37663 19.0848L5.37869 19.0858L5.44094 19.1174L5.44296 19.1184L5.44501 19.1194L5.50759 19.1505L5.50964 19.1515L5.51169 19.1525L5.5746 19.1831L5.57665 19.1841L5.57871 19.185L5.64195 19.2151L5.64401 19.2161L5.6461 19.2171L5.7096 19.2466L5.7117 19.2476L5.71381 19.2485L5.77763 19.2775L5.77974 19.2785L5.78185 19.2794L5.84599 19.3079L5.8481 19.3089L5.85023 19.3098L5.91469 19.3377L5.91682 19.3387L5.91896 19.3396L5.98373 19.367L5.98586 19.3679L5.98802 19.3688L6.05308 19.3957L6.05523 19.3966L6.05739 19.3975L6.12277 19.4239L6.12494 19.4247L6.1271 19.4256L6.19279 19.4515L6.19497 19.4523L6.19713 19.4531L6.26314 19.4784L6.26531 19.4793L6.26751 19.4801L6.33382 19.5049L6.336 19.5057L6.33822 19.5065L6.4048 19.5307L6.40702 19.5315L6.40921 19.5323L6.47613 19.556L6.47834 19.5567L6.48058 19.5575L6.54777 19.5806L6.54998 19.5814L6.55222 19.5821L6.61975 19.6047L6.62196 19.6054L6.6242 19.6062L6.69201 19.6282L6.69424 19.6289L6.69652 19.6296L6.76461 19.651L6.76685 19.6517L6.76911 19.6524L6.83751 19.6733L6.83977 19.674L6.84203 19.6747L6.91072 19.6949L6.91299 19.6956L6.91526 19.6963L6.98426 19.716L6.98654 19.7166L6.98882 19.7173L7.04094 19.7317L7.09187 19.7495L7.0941 19.7502L7.09634 19.751L7.16427 19.7741L7.1665 19.7749L7.16876 19.7756L7.23674 19.798L7.239 19.7988L7.24124 19.7995L7.30931 19.8213L7.31156 19.822L7.3138 19.8227L7.38194 19.8438L7.38421 19.8445L7.38644 19.8452L7.45468 19.8657L7.45692 19.8664L7.45918 19.8671L7.52745 19.8869L7.52972 19.8876L7.53197 19.8882L7.6003 19.9075L7.60257 19.9081L7.60484 19.9088L7.67324 19.9274L7.67551 19.928L7.67776 19.9286L7.74623 19.9466L7.7485 19.9472L7.75075 19.9478L7.81928 19.9652L7.82155 19.9657L7.8238 19.9663L7.89237 19.983L7.89464 19.9836L7.89691 19.9841L7.89926 19.9847L7.99907 19.9984L8.09969 19.9932L8.19758 19.9691L8.28935 19.9271L8.37184 19.8686L8.44217 19.7957L8.49789 19.7108L8.53705 19.6169L8.5583 19.5174L8.56093 19.4155L8.54482 19.315L8.5105 19.2192L8.45922 19.1314L8.39275 19.0549L8.31338 18.9922L8.22387 18.9454L8.14626 18.9206L8.1463 18.9205L8.14411 18.9199L8.0793 18.9041L8.0152 18.8878L8.01375 18.8875L7.95431 18.8718L7.95347 18.8716L7.89043 18.8544L7.8895 18.8542L7.82661 18.8365L7.82563 18.8362L7.76133 18.8175L7.69615 18.7979L7.63548 18.7791L7.6341 18.7786L7.56986 18.7581L7.50649 18.7372L7.44315 18.7157L7.37711 18.6926L7.36025 18.6867L7.34306 18.6819L7.27618 18.6635L7.21119 18.6449L7.14642 18.6257L7.14518 18.6254L7.08416 18.6067L7.02062 18.5867L6.95669 18.566L6.89306 18.5447L6.8289 18.5227L6.8286 18.5225L6.76861 18.5013L6.70569 18.4784L6.64316 18.4551L6.64201 18.4546L6.58284 18.4319L6.52337 18.4086L6.52275 18.4083L6.46229 18.3839L6.46096 18.3834L6.39945 18.358L6.33811 18.332L6.33672 18.3314L6.27915 18.3064L6.2185 18.2794L6.15912 18.2524L6.09889 18.2244L6.09762 18.2238L6.04098 18.1969L5.98229 18.1684L5.92385 18.1394L5.8657 18.1099L5.80932 18.0807L5.80887 18.0805L5.74921 18.049L5.69436 18.0194L5.69289 18.0186L5.63733 17.988L5.63679 17.9877L5.57802 17.9547L5.57669 17.954L5.52247 17.9229L5.46803 17.8912L5.46712 17.8907L5.41216 17.858L5.41095 17.8573L5.35444 17.823L5.30139 17.7903L5.29995 17.7894L5.24458 17.7546L5.19179 17.7208L5.19073 17.7201L5.13414 17.6833L5.13378 17.683L5.08071 17.6478L5.07978 17.6472L5.02761 17.6119L4.97627 17.5767L4.97536 17.576L4.92158 17.5385L4.87035 17.502L4.86935 17.5013L4.81564 17.4625L4.81435 17.4615L4.76394 17.4244L4.71378 17.3869L4.71297 17.3863L4.66019 17.3462L4.65881 17.3451L4.61096 17.3082L4.60978 17.3072L4.55856 17.267L4.45784 17.1859L4.35692 17.102L4.33199 17.0805L4.24944 17.0222L4.1576 16.9803L4.05967 16.9564L3.95907 16.9513L3.85925 16.9651Z" fill="#0A093C"/>
</svg>
