<svg width="27" height="30" viewBox="0 0 27 30" fill="none" xmlns="http://www.w3.org/2000/svg">
<path d="M13.5 15C17.7609 15 21.2143 11.6426 21.2143 7.5C21.2143 3.35742 17.7609 0 13.5 0C9.23906 0 5.78571 3.35742 5.78571 7.5C5.78571 11.6426 9.23906 15 13.5 15ZM19.2737 16.9102L16.3929 28.125L14.4643 20.1562L16.3929 16.875H10.6071L12.5357 20.1562L10.6071 28.125L7.72634 16.9102C3.42924 17.1094 0 20.5254 0 24.75V27.1875C0 28.7402 1.29576 30 2.89286 30H24.1071C25.7042 30 27 28.7402 27 27.1875V24.75C27 20.5254 23.5708 17.1094 19.2737 16.9102Z" fill="#FF5C00"/>
</svg>
