<svg width="35" height="15" viewBox="0 0 35 15" fill="none" xmlns="http://www.w3.org/2000/svg">
<path d="M0.0013227 7.56562C0.0013227 8.08733 0.265973 8.52933 0.795274 8.89163C1.32458 9.25393 1.9673 9.4061 2.72344 9.34813H25.4726L21.9079 11.848C21.3462 12.2248 21.0653 12.6523 21.0653 13.1305C21.0653 13.6522 21.3408 14.0943 21.8917 14.4566C22.4426 14.8189 23.1069 15 23.8847 15C24.6192 14.9855 25.2349 14.7754 25.7318 14.3696L34.1898 8.78294C34.7299 8.42064 35 7.97139 35 7.43519C34.9784 6.88449 34.6975 6.43524 34.1574 6.08743L25.6346 0.544254C25.1161 0.167463 24.4896 -0.0136869 23.7551 0.00080511C22.9773 0.00080511 22.3184 0.174709 21.7783 0.522516C21.2382 0.870324 20.9681 1.30508 20.9681 1.82679C20.9681 2.34851 21.2382 2.79051 21.7783 3.15281L25.4402 5.65268H2.65863C1.88088 5.66717 1.23816 5.85919 0.730462 6.22873C0.222765 6.59828 -0.0202814 7.04391 0.0013227 7.56562Z" fill="white"/>
</svg>
