<svg width="50" height="50" viewBox="0 0 50 50" fill="none" xmlns="http://www.w3.org/2000/svg">
<path d="M50 6.53898C50 4.80474 49.3415 3.14152 48.1694 1.91522C46.9973 0.688927 45.4076 0 43.75 0L6.25 0C4.5924 0 3.00269 0.688927 1.83058 1.91522C0.65848 3.14152 0 4.80474 0 6.53898L0 32.6949C0 34.4292 0.65848 36.0924 1.83058 37.3187C3.00269 38.545 4.5924 39.2339 6.25 39.2339H36.2063C37.035 39.2341 37.8297 39.5787 38.4156 40.1919L47.3312 49.5197C47.5496 49.7487 47.828 49.9048 48.1311 49.9683C48.4343 50.0317 48.7487 49.9996 49.0344 49.876C49.3201 49.7525 49.5644 49.543 49.7363 49.2741C49.9081 49.0052 49.9999 48.6891 50 48.3656V6.53898ZM15.625 19.617C15.625 20.4841 15.2958 21.3157 14.7097 21.9288C14.1237 22.542 13.3288 22.8864 12.5 22.8864C11.6712 22.8864 10.8763 22.542 10.2903 21.9288C9.70424 21.3157 9.375 20.4841 9.375 19.617C9.375 18.7498 9.70424 17.9182 10.2903 17.3051C10.8763 16.6919 11.6712 16.3475 12.5 16.3475C13.3288 16.3475 14.1237 16.6919 14.7097 17.3051C15.2958 17.9182 15.625 18.7498 15.625 19.617ZM28.125 19.617C28.125 20.4841 27.7958 21.3157 27.2097 21.9288C26.6237 22.542 25.8288 22.8864 25 22.8864C24.1712 22.8864 23.3763 22.542 22.7903 21.9288C22.2042 21.3157 21.875 20.4841 21.875 19.617C21.875 18.7498 22.2042 17.9182 22.7903 17.3051C23.3763 16.6919 24.1712 16.3475 25 16.3475C25.8288 16.3475 26.6237 16.6919 27.2097 17.3051C27.7958 17.9182 28.125 18.7498 28.125 19.617ZM37.5 22.8864C36.6712 22.8864 35.8763 22.542 35.2903 21.9288C34.7042 21.3157 34.375 20.4841 34.375 19.617C34.375 18.7498 34.7042 17.9182 35.2903 17.3051C35.8763 16.6919 36.6712 16.3475 37.5 16.3475C38.3288 16.3475 39.1237 16.6919 39.7097 17.3051C40.2958 17.9182 40.625 18.7498 40.625 19.617C40.625 20.4841 40.2958 21.3157 39.7097 21.9288C39.1237 22.542 38.3288 22.8864 37.5 22.8864Z" fill="white"/>
</svg>
